<?xml version="1.0" encoding="UTF-8"?>
<svg id="Ebene_1" data-name="Ebene 1" xmlns="http://www.w3.org/2000/svg" viewBox="0 0 498.52 269.56">
  <defs>
    <style>
      .cls-1 {
        fill: #2574ba;
      }

      .cls-2 {
        fill: #49bbbc;
      }

      .cls-3 {
        fill: #0c93cf;
      }

      .cls-4 {
        fill: #0ea2cd;
      }

      .cls-5 {
        fill: #1880c4;
      }

      .cls-6 {
        fill: #2854a1;
      }

      .cls-7 {
        fill: #05a6cd;
      }

      .cls-8 {
        fill: #1eb7cc;
      }

      .cls-9 {
        fill: #2856a3;
      }

      .cls-10 {
        fill: #08aacf;
      }

      .cls-11 {
        fill: #275ea9;
      }

      .cls-12 {
        fill: #0c9ccf;
      }

      .cls-13 {
        fill: #1a83c6;
      }

      .cls-14 {
        fill: #2c67b0;
      }

      .cls-15 {
        fill: #177cc0;
      }

      .cls-16 {
        fill: #11b1d2;
      }

      .cls-17 {
        fill: #1e7cc1;
      }

      .cls-18 {
        fill: #11b6cf;
      }

      .cls-19 {
        fill: #40bac2;
      }

      .cls-20 {
        fill: #256cb4;
      }
    </style>
  </defs>
  <path class="cls-8" d="M378.07,79.31l1.34,5.61c1.21,5.07-.2,7.48,2.2,7.5-.82,1.95-2.48,4.01-4.02,6.29l33.5,63.21c3.47.15,7.42.25,9.53,1.21l3.78,1.74c2.55,4.28,3.3,9.3,3.05,14.06l19.09,10.54-.31,3.65-20.49-9.73c-1.35-.64-4.64,1.95-5.12,3.39l16.7,54.43-4.45.29-16.55-53.33-11.06-3.33c-5.62,5.15-10.53,9.7-16.12,13.54-.8-.92-1.53-2.14-1.98-3.29l15.57-14.24-2.89-9.78-53.99-18.49.78-3.59,51.97,17.2c2.8.92,5.57,1.05,6.77-.45,1.64-2.04.92-3.2-.34-5.58l-31.76-59.83-10.05-1.09-21.18,32.11c-.92,1.39-1.53,3.01-1.7,4.37l-3.79-3.52,23.12-36.03-3.22-6.94-28.35-.2,1.05-3.78c8.32.06,17.99-.68,26.45-1.05,5.29-.23,2.31-4.3,1.33-8.61-3.67-16.08-27.65-38.61-40.77-48.5.89-2.56,2.45-4.96,3.99-7.33,21.57,12.62,37.56,32.66,47.42,55.61,4.14.39,8.33.92,10.49,3.93Z"/>
  <path class="cls-3" d="M232.26,1.05c4.91.83,8.69,3.22,9.2,8.12-9.67.74-19.64,3.13-29.22,5.78-.9,3.63-1.66,5.78-3.46,9.24l36.66,52.19,6.91.08c1.6.02,4.23-.18,5.1-1.3l2.64,2.5c.14,3.11,2.2,6.72,5.54,7.12-.28,1.56.5,3.23,1.82,4.31-2.73,0-3.4,1.17-4.59,3.32-1.25,2.28-2.97,4.49-4.75,6.36l-7.97,2.95-4.15,24.28-2.56-8.83c-.03-.65-.09-1.86-.08-2.48.37.15,2.35-.82,2.05-1.41l-1.17-2.37,1.5-10.53-6.46-5.23-18.19,8.8-1-3.38,17.82-9.63c-.2-4.55.56-7.65,4.06-11.34l-36.72-52.34c-2.66-.16-5.86.39-8.4,1.25l-10.53,28.71c-.34-1.44-1.54-2.81-2.96-2.8l9.63-28.93c-6.26,2.38-10.65,4.49-14.26,7.47-.94-.16-4.36-.24-4.8-1.32s-1.06-2.94-1.51-4.29c4.19-2.94,8.11-6.82,13.06-9.69-1.6-6.66,2.5-11.15,6.71-13.9,6.54-4.26,11.37,1.61,16.84,1.73,7.73.18,15.85-3.67,23.25-4.43Z"/>
  <path class="cls-2" d="M492.4,198.2l-9.07.07c4.98-24.45,1.84-49.9-14-70.43l-8.25-1.62-3.74,1.55c-.92-.43-1.98-1.04-2.67-1.59,2.4-2.38,2.35-5.03.93-8.22l-.1-6.77c-11.55-9.37-24.46-16.79-38.63-21.07,2.41-.22,4.24-1.79,5.15-3.96l1.11-2.65c14.06,4.43,27.67,10.97,38.89,21.43,5.81-2.2,11.84-1.02,15.47,2.56,4.41,4.33,3.32,10.24.85,15.22,13.76,21.67,22.14,51.23,14.04,75.49Z"/>
  <path class="cls-6" d="M43.24,116.24c-10.69,13.37-20.12,27.46-22.55,44.93,8.76,8.76,1.14,10.22,7.59,14.05,1.24.74,2.46,1.25,3.84,1.87l8.05,3.61c-.92.92-1.63,2.23-1.88,3.45l-13.94-5.72c-1.47-.6-4.56,1.92-5.09,3.23.72,18.27,9.27,33.86,21.05,48.4-2.11,3.36-6.2,4.53-3.68,8.03-14.77-11.81-26.13-36.36-26.97-55.54-5.68-2.57-10.04-6.74-9.62-12.9.36-5.27,5.08-9.06,10.95-11.09,4.09-16.93,12.1-33.02,23.96-45.8,3.15-.05,6.43,1.09,8.3,3.48Z"/>
  <path class="cls-11" d="M94.9,79.52c-.24,2.06.69,5.64,2.55,6.24l4.57,1.47c-10.91.97-21.57,4.7-31.75,9.06-.87,1.57-.85,4.92.14,6.3l38.02,15.58-.78,3.52-39.56-15.03c-2.35,1.47-4.4,3.06-5.91,5.04l20.67,71.52c-.31,1.69-1.34,3.3-2.73,4.49l-22.61-76.02c-2.12-.57-6.27-1.6-7.62-.57l-6.64,5.11c-1.87-2.39-5.16-3.53-8.3-3.48l8.88-9.56c-1.27-6,.84-11.01,4.95-14.34,4.53-3.67,10.72-1.33,15.42-.36,10.04-3.74,19.98-7.42,30.71-8.98Z"/>
  <path class="cls-12" d="M322.84,240.66l5.2.46c2.25.79,4.5,1.26,6.62.37.63.49,2.21,1.87,2.14,2.74l-.29,3.38c-1.27.39-4.94,2.01-5.61,3.48-2.05,4.54-6.54,13.19-2.85,15.76-5.51,1.89-10.02-.71-14.92-4.44-7.23-.44-15.59-.6-22.8-.6.21-4.17-9.92-1.78-11.09-8.38l31.29-.4c.91-1.9,1.58-3.95,1.65-5.76l-55.78-36.36c.35.08,1.75-1.07,1.56-1.64l-.75-2.3,57.94,36.96c2.54-1.14,5.78-3.42,7.67-3.25Z"/>
  <path class="cls-10" d="M320.15,19.77c-1.54,2.37-3.1,4.77-3.99,7.33-3.55-2.67-6.24,3.6-16.31.93l-38.87,49.47-.91.16-2.64-2.5,38.27-49.55c-1.64-3.3-2.48-5.78-3.29-9.53-5.99-2.54-13.51-4.14-20.6-5.7l2.06-8.07c7.19,1.6,15.21,2.74,22.81,4.84,4.06-1.82,8.43-3.98,13.46-1.84,11.13,4.74,5.1,11.57,10,14.44Z"/>
  <path class="cls-18" d="M448.33,243.1c1.8,1.62,3.79,5.26,3.62,7.79-1.79,7.3-2.91,12.95-12.7,13.87-4.21.4-8.12-2.23-11.11-4.49-6.08.89-12.35,1.91-18.62,1.85l-31.5-.31c-.07-4.92-12.22-1.27-11.19-8.38l46.36-.29c3.97-.02,9.35-.7,12.45-1.93,1.78-4.4,3.99-7.07,7.23-9.69l4.45-.29c2.23-.15,4.3.05,6.69.7l4.32,1.17Z"/>
  <path class="cls-9" d="M62.69,233.52l4.13.96-2.6,5.29,2.2,7.64c6.66,2.66,14.24,5.36,21.76,5.47l20.43.31-.52,3.71c1.62,1.5,2.56,3.07,2.28,4.87-22.62.61-25.5.95-47.73-5.45-5.22,3.08-11.32,5.33-16.74,1.35-4.25-3.12-6.3-8.44-4.36-14.31l-4.93-5.27c-2.51-3.5,1.57-4.67,3.68-8.03l7.52,6.41,11.24-.23,3.63-2.72Z"/>
  <path class="cls-19" d="M483.34,198.27l9.07-.07c-1.2,3.58,10.08,7.61,4.6,18.32-2.45,4.8-7.75,6.84-14.07,5.94-7.97,11.97-18.22,22.13-31,28.43.17-2.52-1.82-6.17-3.62-7.79,10.16-6.92,20.11-14.73,26.58-25.42-1.23-3-1.92-6.17-1.76-9.79l-26.92-14.76.31-3.65,28.45,14.2c2.56-2.25,5.46-4.4,8.34-5.42Z"/>
  <path class="cls-20" d="M172.87,245.77l2.17,2.1c-.58,1.29-1.1,3.62-.91,4.92.05.32.29.84.41,1.15.18.45,1.69-.92,1.49-.94,1.31.14,3.17.19,4.5.19-.6,5.81,2.79,4.46,2.82,8.52-2.61,0-5.8.26-8.75.44-2.54,4.9-6.88,7.56-12.02,7.41-4.83-.15-9.99-2.42-11.36-7.09,1.38-1.32,2.76-3.8,2.7-5.7l-.26-8.95c5.05-1.69,10.2-3.83,15.21-.36l4-1.67Z"/>
  <path class="cls-20" d="M145.7,73.84l-5.42,16.16c-13.45-2.05-25.66-3.89-38.26-2.76l-4.57-1.47c-1.86-.6-2.8-4.19-2.55-6.24,12.82-1.86,26.03-1.8,39.05.34l4.17-10.16,4.04,2.14c1.34.71,2.59,1.38,3.53,2Z"/>
  <path class="cls-5" d="M178.71,32.95c-13.91,11.49-24.63,25.27-33.01,40.89-.94-.62-2.19-1.29-3.53-2l-4.04-2.14c6.88-16.75,19.16-31.74,34.26-42.35.45,1.35,1.06,3.2,1.51,4.29s3.86,1.16,4.8,1.32Z"/>
  <path class="cls-15" d="M233.16,253.38c-1.36,8.31,14.73,1.72,15.66,8.43l-65.47-.1c-.03-4.06-3.42-2.71-2.82-8.52l52.63.19Z"/>
  <path class="cls-7" d="M336.51,247.61c1.04,1.35,1.7,2.8,2.65,5.29l27.67.52c-1.03,7.1,11.12,3.45,11.19,8.38l-41.16.25c-2.66,2.75-5.71,3.73-8.79,4.79-3.69-2.56.79-11.21,2.85-15.76.66-1.47,4.34-3.09,5.61-3.48Z"/>
  <path class="cls-19" d="M423.14,83.51l-1.11,2.65c-.91,2.18-2.75,3.74-5.15,3.96-10.44-3.15-22.22-3.01-33.23-2.53l-2.04,4.83c-2.4-.02-.99-2.43-2.2-7.5l-1.34-5.61c15.48-3.08,30.61-.36,45.07,4.2Z"/>
  <path class="cls-3" d="M279.24,253.42c1.17,6.6,11.3,4.22,11.09,8.38h-41.51c-.93-6.7-17.02-.11-15.66-8.42l46.08.03Z"/>
  <path class="cls-14" d="M153.66,247.81l.26,8.95c.06,1.9-1.32,4.38-2.7,5.7l-3.93-.84-.96-8.44c1.28,0,2.6-.34,4.77-1.44l-50.37-35.46c-1.2-.84-2.99-1.68-4.09-2.19l2.98-3.65,54.03,37.36Z"/>
  <path class="cls-11" d="M146.33,253.18l.96,8.44c-9.17.47-18.41.34-27.63.31-1.22-1.62-5.23-1.61-6.46,0-.72-.05-2.11-.16-2.82-.15.27-1.8-.66-3.37-2.28-4.87l.52-3.71h37.72Z"/>
  <path class="cls-4" d="M273.88,2.32l-2.06,8.07c-9.77-.98-19.64-2.03-30.36-1.22-.5-4.9-4.29-7.28-9.2-8.12,14.02-1.44,28.16-1.73,41.62,1.27Z"/>
  <path class="cls-14" d="M119.66,261.92c-1.71,0-4.65.76-6.46,0,1.23-1.61,5.24-1.61,6.46,0Z"/>
  <path class="cls-4" d="M336.55,132.21l3.79,3.52c8.46,7.85,2.35,11.97,6.28,13.27l-.78,3.59c-3.71-1.27-4.71,6.31-12.29,6.27l-5.91-.03c-2.55-.8-5.26-2.85-7.71-4.68l-17.32,7.79-1.14-3.48,16.58-8.38.49-10.49-56.62-40.01c-1.2-.85-2.84-1.17-3.82-.81,1.78-1.87,3.5-4.07,4.75-6.36-.07,1.54.79,2.93,2.39,4.06l56.21,39.76c9.72-6.05,8.64-2.15,15.1-4.03Z"/>
  <path class="cls-10" d="M389.14,198.4l-49.49,44.33c-.55.5-2.34,1.32-2.86,1.51.07-.87-1.51-2.25-2.14-2.74l52.51-46.39c.45,1.15,1.17,2.37,1.98,3.29Z"/>
  <path class="cls-7" d="M329.15,85.26l-1.05,3.78-60.67.04c-1.32-1.08-2.1-2.75-1.82-4.31l63.53.48Z"/>
  <path class="cls-19" d="M457.35,127.77c-.25,1.2-1,2.98-2.04,4.08l-30.92,33.02-3.78-1.74c11.2-12.45,22.2-25.18,34.06-36.96.68.55,1.74,1.17,2.67,1.59Z"/>
  <path class="cls-13" d="M245.98,125.99l-9.28,55.54,5.63,3.57c.08,1.66,3.99,3.57,5.7,2.84l-2.45,1.82.49,9.91,11.16,7.28.75,2.3c.19.57-1.21,1.72-1.56,1.64l-13.03-7.51c-5.55,4.98-12.62,5.71-19.5,2.39-16.86,13.99-31.75,29.52-48.83,42.1l-2.17-2.1c14.19-14.36,30.05-27.34,45.48-41.27,1.45-1.31,2.31-2.76,1.61-4.36-.48-1.1-2.78-1.93-4.13-1.85l.97-4.21c1.13-.53,2.47-2.29,2.62-3.53.14-1.14-1.31-3.14-2.54-4.07l-47.4-36.01c.67-1,1.34-2.19,1.9-3.33l50.99,37.86c3.83-2.17,6.11-2.91,9.87-3.7l9.35-56.94c.43-2.63,1.13-5.13,1.81-7.18l2.56,8.83Z"/>
  <path class="cls-17" d="M186.3,57.21l-23.47,65.71c-.38,1.06.39,3.28,1.07,3.57s2.37.36,3.19-.05l51.23-25.25.96-.65h.78s1,3.4,1,3.4l-53.06,26.82c.36,5.01-.05,8.35-.97,12.6,1.34,1.17,3.16,2.88,4.36,3.77-.56,1.14-1.23,2.33-1.9,3.33-1.51-1.15-4.23-2.55-6.31-3.72-5.48,3.13-11.55,3.67-16.48.65-1.23-.75-2.46-1.62-3.71-2.03-.53-2.79-2.66-7.43-2.4-9.91.13-1.26.87-3.69,1.11-4.98,2.59-5.28,8.96-8.76,16.23-7.01l25.41-69.06c1.43,0,2.62,1.37,2.96,2.8Z"/>
  <path class="cls-13" d="M243.34,114.68c.01-.98.53-2.77.88-3.78l1.17,2.37c.29.59-1.68,1.56-2.05,1.41Z"/>
  <path class="cls-11" d="M81.05,193.69c2.75,2.08,5.9,3.6,9.56,4.2l8.47,1.39.31,1.05-.8,2.09c-.27.71,1.48,2.05,1.97,2.35,0,1.4,0,4.53-.93,5.67l-2.98,3.65c-4.01,3.24-9.43,3.43-15.01,2.24l-14.81,18.15-4.13-.96,14.92-20.28c-2.36-3.95-3.69-7.6-2.99-12.66l-36.34-16.43c.26-1.22.97-2.53,1.88-3.45l36.71,16.04,4.16-3.05Z"/>
  <path class="cls-11" d="M32.12,177.09c-1.38-.62-2.59-1.13-3.84-1.87l3.84,1.87Z"/>
  <path class="cls-14" d="M146.7,147.39l-45.89,46.07c-1.91,1.92-2.86,3.62-1.74,5.82l-8.47-1.39c-3.66-.6-6.81-2.12-9.56-4.2-.24-1.72-.47-4.38-.94-5.97,1.39-1.19,2.42-2.8,2.73-4.49.7,2.44,1.83,5.82,2.65,8.29l9.3,1.68,48.21-47.84c1.25.4,2.48,1.28,3.71,2.03Z"/>
  <path class="cls-1" d="M141.7,130.48c-.24,1.29-.98,3.71-1.11,4.98l-32.95-13.75.78-3.52,33.28,12.3Z"/>
  <path class="cls-16" d="M328.79,216.98c-.54,8.02-.89,16.16-.76,24.14l-5.2-.46,1.88-23.88,4.08.2Z"/>
  <path class="cls-12" d="M176.03,252.99c.2.02-1.31,1.39-1.49.94-.12-.31-.37-.83-.41-1.15l1.9.21Z"/>
  <path class="cls-12" d="M333.56,158.86c-.53.9-1.06,2.65-1.16,4.12l-3.61,54-4.08-.2,3-51.08c.14-2.44.04-4.85-.06-6.87l5.91.03Z"/>
  <path class="cls-12" d="M301.48,158.46l1.14,3.48c-18.34,8.25-36.11,18.01-54.6,26-1.7.73-5.62-1.18-5.7-2.84,1.25.05,3.1-.25,4.5-.91l54.65-25.73Z"/>
  <path class="cls-3" d="M218.33,101.19l.96-.65-.96.65Z"/>
  <path class="cls-1" d="M216.81,194.07l-.97,4.21-59.36,3.56c-.76-1.31,9.4-.66,10.35-4.4l49.98-3.38Z"/>
  <path class="cls-14" d="M107.27,201.42c.54.01,1.74.22,2.51.31.53.06.8-.85.9-1.41,1.28.09,3.19.21,4.4.14l-.02,3.79c-4.78.59-9.7.8-14.5.51-.49-.31-2.24-1.65-1.97-2.35l.8-2.09c.42.38,1.88.97,2.56.98l5.32.11Z"/>
  <path class="cls-14" d="M156.58,197.52c.03.2,1.06,1.14,1.32.79l.65-.88c2.5-.12,5.87.19,8.28.02-.95,3.74-11.12,3.08-10.35,4.4l-2.52.06-2.48-1.15c-.79-.37-2.82,1.12-2.45,1.8l-14.5.19c.13-1.1-2.21-2.03-3.56-1.95l-3.38.21c-.76.05-.51,1.75-.47,2.53l-7.42.03v-3.38s2.59-.23,2.59-.23c-.07.09,1.29,1.54,1.47,1.05.12-.34.37-.86.52-1.19l2.77-.04c1.59-.02,4.38.17,5.62-.56l3.45-.12,2.32,1.04c.44.2.91-1.47.84-1.59l1.63-.03,2.24.77c.43.15,1.33-.75,1.45-.99l12-.77Z"/>
  <path class="cls-1" d="M119.7,200.2v3.38c-1.42.24-3.14.5-4.65.69l.02-3.79,4.62-.28Z"/>
  <path class="cls-1" d="M134.52,202.75c-2.3.65-4.86.78-7.41.79-.03-.78-.28-2.49.47-2.53l3.38-.21c1.34-.08,3.68.84,3.56,1.95Z"/>
  <path class="cls-1" d="M153.96,201.91c-1.31.46-3.26.63-4.93.65-.37-.68,1.66-2.17,2.45-1.8l2.48,1.15Z"/>
  <path class="cls-1" d="M132.66,199.22c-1.23.74-4.02.54-5.62.56,1.57-.34,3.74-.5,5.62-.56Z"/>
  <path class="cls-1" d="M110.67,200.33c-.1.55-.37,1.47-.9,1.41-.76-.09-1.97-.3-2.51-.31,0-.37.53-1.29,1.04-1.26l2.36.17Z"/>
  <path class="cls-1" d="M139.26,198.55c.07.13-.4,1.79-.84,1.59l-2.32-1.04,3.16-.55Z"/>
  <path class="cls-1" d="M144.58,198.29c-.12.24-1.01,1.14-1.45.99l-2.24-.77,3.69-.22Z"/>
  <path class="cls-1" d="M124.27,199.83c-.15.32-.4.85-.52,1.19-.18.49-1.54-.95-1.47-1.05.61-.07,1.43-.13,1.99-.14Z"/>
  <path class="cls-1" d="M158.55,197.43l-.65.88c-.26.36-1.29-.59-1.32-.79l1.97-.1Z"/>
</svg>