<?xml version="1.0" encoding="UTF-8"?>
<svg id="Ebene_1" data-name="Ebene 1" xmlns="http://www.w3.org/2000/svg" viewBox="0 0 554.11 441.75">
  <defs>
    <style>
      .cls-1 {
        fill: #054fbe;
      }

      .cls-2 {
        fill: #046eca;
      }

      .cls-3 {
        fill: #09a2ce;
      }

      .cls-4 {
        fill: #007dc9;
      }

      .cls-5 {
        fill: #0881cb;
      }

      .cls-6 {
        fill: #0bb0d1;
      }

      .cls-7 {
        fill: #085dc4;
      }

      .cls-8 {
        fill: #07c9cb;
      }

      .cls-9 {
        fill: #0f9ccf;
      }

      .cls-10 {
        fill: #0b84ce;
      }

      .cls-11 {
        fill: #0bb9cd;
      }

      .cls-12 {
        fill: #0b93cf;
      }

      .cls-13 {
        fill: #044ec2;
      }

      .cls-14 {
        fill: #1076cb;
      }

      .cls-15 {
        fill: #06d2c9;
      }

      .cls-16 {
        fill: #0a7ecc;
      }

      .cls-17 {
        fill: #0452c0;
      }

      .cls-18 {
        fill: #08b5cf;
      }

      .cls-19 {
        fill: #0b68c9;
      }

      .cls-20 {
        fill: #0893ce;
      }

      .cls-21 {
        fill: #02a5cc;
      }

      .cls-22 {
        fill: #0552c2;
      }

      .cls-23 {
        fill: #034bc0;
      }

      .cls-24 {
        fill: #09a9ce;
      }
    </style>
  </defs>
  <g>
    <path class="cls-13" d="M108.29,439.75l-.12-38.91c-.01-4.61-1.56-9.4-6.25-11.69-6.47-3.15-20.72-.25-22.4,8.2-2.78,14.06.28,27.94-1.25,42.43h-17.01s-.01-98.38-.01-98.38l17.04-.19.28,42.01c6.58-8.64,15.68-11.75,25.98-10.91,11.34.92,19.03,8.44,20.81,19.96l.13,47.53-17.19-.05Z"/>
    <path class="cls-17" d="M312.26,428.93c-9.45,11.72-24.11,14.54-37.72,11.91-13.43-2.59-24.43-12.12-27.12-25.43-2.42-11.97-.25-24.38,8.91-32.97,14.78-13.84,39.54-14.09,54.12.59,11.96,12.05,12.5,32.65,1.82,45.9ZM302.54,407.1c0-10.78-8.74-19.51-19.51-19.51s-19.51,8.74-19.51,19.51,8.74,19.51,19.51,19.51,19.51-8.74,19.51-19.51Z"/>
    <path class="cls-22" d="M209.62,387.9c-6.05-.49-17.26,2.61-18.21,9.64-1.9,14.05-.13,27.82-.94,42.31l-16.91-.17.03-65.22,15.62-.23,1.66,7.93c9.37-10.48,24.58-13.34,36.79-6.03,5.83,3.49,9.35,11.06,9.36,17.93l.12,45.89-17.31-.18-.23-41.41c-.03-5.35-3.65-9.96-9.99-10.47Z"/>
    <path class="cls-23" d="M49.6,424.99l1.67,13.6c-8.5,3-16.59,4.13-25.31,1.76-7.73-2.11-13.25-9.05-13.27-17.45l-.06-34.22-12.56-.5-.07-13.84,12.5-.36.3-22.36,16.93-.13.17,22.51,20.23.32-.05,13.91-20.14.45-.12,29.15c-.02,4.44,2.48,8.89,7.89,8.7,3.64-.13,6.84-.72,11.89-1.54Z"/>
    <path class="cls-12" d="M408.19,440.12l-.75-10.31c-7.52,9.69-18.79,13.77-31.03,10.93-10.7-2.48-19.82-11.16-22.29-23.03-2.91-13.99,3.22-28.36,15.44-34.29,13.46-6.53,28.91-3.53,38.06,8.71l.3-37.52,7.56-.09v85.29s-7.28.33-7.28.33ZM408.47,410.96c0-13.07-10.59-23.66-23.66-23.66s-23.66,10.59-23.66,23.66,10.59,23.66,23.66,23.66,23.66-10.59,23.66-23.66Z"/>
    <rect class="cls-13" x="140.66" y="374.23" width="17.36" height="65.66"/>
    <path class="cls-6" d="M540.16,382.44c2.63-.48,5.55-.48,8.51-.14l-26.07,57.76h-8.47s-25.72-57.68-25.72-57.68c3.39-.73,6.77-.69,8.63.57l21.51,47.47,21.6-47.98Z"/>
    <path class="cls-9" d="M440.3,393.58c-3.01,2.91-4.15,8.98-5.07,13.63l43.27-.39c1.92-.72,4.58-2.52,6.14-3.91.39,3.21,2.26,6.69.97,10.67l-50.29.24c.9,5.58,2.79,12.62,7.2,15.78-.61-.04-3.53-.08-3.81.81l-1.02,3.3c-6.44-5.91-11.32-12.34-10.85-23.13.41-9.48,4.18-20.23,12.77-24.87-.81.85-1.68,1.93-3.25,3.78.87,1.02,2.81,3.02,3.93,4.09Z"/>
    <path class="cls-3" d="M484.65,402.9c-1.56,1.39-4.22,3.2-6.14,3.91-.75-7.84-5.31-15.28-13.36-18.43-8.41-3.29-18.47-.99-24.85,5.2-1.13-1.07-3.06-3.07-3.93-4.09,1.57-1.85,2.44-2.93,3.25-3.78,3.78-3.98,10.13-5.1,15.92-5.53,14.74-1.09,27.42,8.82,29.11,22.72Z"/>
    <circle class="cls-1" cx="149.6" cy="353.48" r="10.51"/>
    <path class="cls-24" d="M437.7,433.71l1.02-3.3c.27-.89,3.19-.85,3.81-.81,10.9,7.82,25,6.69,35.11-2.91,1.81,1.47,3.44,3.27,4.61,5.01-12.42,12.54-32.31,13.25-44.55,2.01Z"/>
    <circle class="cls-20" cx="336.58" cy="433.14" r="8.45"/>
  </g>
  <g>
    <path class="cls-11" d="M423.6,89.95l1.46,6.36c1.32,5.75-.21,8.48,2.38,8.51-.89,2.21-2.68,4.54-4.36,7.14l36.3,71.69c3.76.17,8.04.28,10.32,1.38l4.09,1.97c2.76,4.86,3.57,10.55,3.31,15.95l20.68,11.96-.34,4.14-22.2-11.03c-1.47-.73-5.02,2.22-5.55,3.84l18.1,61.73-4.82.33-17.93-60.48-11.98-3.78c-6.09,5.84-11.41,11-17.47,15.35-.87-1.04-1.65-2.43-2.14-3.73l16.86-16.15-3.14-11.09-58.5-20.97.85-4.07,56.31,19.5c3.03,1.05,6.04,1.19,7.33-.51,1.77-2.32,1-3.63-.37-6.33l-34.41-67.85-10.89-1.24-22.95,36.41c-1,1.58-1.65,3.41-1.84,4.95l-4.11-3.99,25.06-40.86-3.49-7.87-30.72-.22,1.14-4.29c9.02.07,19.49-.77,28.66-1.19,5.73-.26,2.5-4.88,1.44-9.76-3.98-18.24-29.95-43.79-44.18-55.01.97-2.9,2.66-5.62,4.32-8.31,23.38,14.31,40.69,37.04,51.38,63.06,4.48.44,9.03,1.04,11.37,4.46Z"/>
    <path class="cls-20" d="M265.61,1.2c5.32.95,9.42,3.65,9.96,9.2-10.48.83-21.28,3.55-31.66,6.55-.97,4.12-1.8,6.55-3.75,10.48l39.72,59.19,7.48.09c1.73.02,4.58-.2,5.52-1.48l2.86,2.84c.15,3.53,2.39,7.62,6.01,8.07-.3,1.77.54,3.66,1.97,4.89-2.96,0-3.69,1.32-4.97,3.77-1.36,2.59-3.22,5.09-5.15,7.21l-8.63,3.34-4.5,27.54-2.77-10.01c-.03-.73-.09-2.11-.09-2.82.41.18,2.54-.93,2.23-1.6l-1.27-2.69,1.62-11.95-7-5.93-19.71,9.98-1.08-3.84,19.31-10.92c-.21-5.16.6-8.68,4.4-12.86l-39.78-59.35c-2.88-.18-6.35.44-9.1,1.42l-11.41,32.56c-.37-1.63-1.67-3.18-3.21-3.18l10.43-32.81c-6.78,2.69-11.54,5.09-15.46,8.47-1.02-.18-4.72-.28-5.2-1.49s-1.15-3.33-1.64-4.86c4.54-3.34,8.78-7.73,14.15-10.99-1.74-7.56,2.71-12.65,7.27-15.76,7.09-4.84,12.32,1.82,18.25,1.96,8.37.2,17.18-4.16,25.19-5.02Z"/>
    <path class="cls-15" d="M547.48,224.78l-9.83.08c5.4-27.73,1.99-56.59-15.16-79.87l-8.94-1.83-4.05,1.76c-1-.48-2.15-1.18-2.89-1.81,2.6-2.7,2.55-5.71,1.01-9.32l-.11-7.68c-12.52-10.63-26.5-19.04-41.86-23.9,2.61-.25,4.6-2.03,5.58-4.49l1.2-3c15.23,5.02,29.99,12.44,42.14,24.31,6.3-2.5,12.83-1.15,16.76,2.9,4.77,4.91,3.6,11.62.93,17.26,14.9,24.58,23.99,58.1,15.22,85.61Z"/>
    <path class="cls-1" d="M60.81,131.83c-11.59,15.16-21.8,31.14-24.43,50.96,9.49,9.94,1.24,11.59,8.23,15.94,1.35.84,2.66,1.42,4.16,2.12l8.72,4.09c-.99,1.05-1.77,2.53-2.04,3.91l-15.1-6.49c-1.59-.68-4.94,2.18-5.52,3.67.78,20.72,10.05,38.4,22.81,54.9-2.29,3.81-6.72,5.13-3.99,9.1-16-13.39-28.31-41.23-29.22-62.99-6.16-2.91-10.88-7.64-10.42-14.63.39-5.98,5.5-10.27,11.86-12.58,4.43-19.2,13.11-37.45,25.97-51.94,3.41-.05,6.97,1.24,8.99,3.95Z"/>
    <path class="cls-7" d="M116.78,90.18c-.27,2.33.75,6.4,2.76,7.08l4.95,1.67c-11.82,1.1-23.37,5.33-34.4,10.28-.95,1.78-.92,5.58.15,7.15l41.19,17.67-.84,4-42.87-17.05c-2.55,1.66-4.77,3.47-6.41,5.71l22.39,81.11c-.34,1.91-1.45,3.74-2.96,5.09l-24.49-86.22c-2.29-.64-6.8-1.82-8.26-.64l-7.19,5.79c-2.02-2.71-5.59-4-8.99-3.95l9.62-10.84c-1.37-6.81.91-12.49,5.37-16.27,4.9-4.16,11.61-1.51,16.7-.41,10.88-4.24,21.65-8.42,33.28-10.18Z"/>
    <path class="cls-9" d="M363.75,272.94l5.63.52c2.44.89,4.87,1.42,7.18.42.68.56,2.4,2.12,2.32,3.11l-.31,3.83c-1.37.44-5.36,2.28-6.07,3.94-2.22,5.15-7.09,14.96-3.08,17.87-5.97,2.14-10.86-.8-16.16-5.04-7.83-.5-16.89-.68-24.71-.68.23-4.72-10.74-2.02-12.01-9.51l33.9-.46c.99-2.15,1.71-4.48,1.79-6.54l-60.43-41.24c.38.1,1.9-1.21,1.7-1.86l-.82-2.61,62.78,41.91c2.75-1.29,6.26-3.88,8.32-3.69Z"/>
    <path class="cls-24" d="M360.85,22.42c-1.66,2.69-3.35,5.41-4.32,8.31-3.84-3.03-6.76,4.08-17.67,1.06l-42.12,56.1-.98.18-2.86-2.84,41.47-56.19c-1.78-3.74-2.69-6.56-3.56-10.8-6.49-2.88-14.64-4.7-22.32-6.46l2.24-9.15c7.79,1.82,16.48,3.11,24.71,5.49,4.4-2.06,9.13-4.51,14.58-2.08,12.06,5.38,5.52,13.12,10.84,16.38Z"/>
    <path class="cls-18" d="M499.72,275.7c1.95,1.83,4.1,5.97,3.92,8.83-1.94,8.28-3.15,14.68-13.76,15.73-4.56.45-8.8-2.53-12.04-5.09-6.59,1.01-13.38,2.17-20.18,2.1l-34.13-.35c-.07-5.58-13.24-1.44-12.12-9.5l50.23-.33c4.3-.03,10.13-.79,13.49-2.19,1.93-4.99,4.32-8.02,7.84-10.99l4.82-.33c2.42-.17,4.66.06,7.24.79l4.68,1.33Z"/>
    <path class="cls-22" d="M81.88,264.84l4.48,1.09-2.82,6,2.39,8.66c7.22,3.02,15.43,6.07,23.58,6.2l22.14.35-.56,4.21c1.75,1.7,2.77,3.48,2.47,5.52-24.51.69-27.63,1.07-51.72-6.19-5.65,3.5-12.27,6.05-18.14,1.54-4.6-3.53-6.83-9.57-4.72-16.23l-5.34-5.97c-2.72-3.97,1.71-5.29,3.99-9.1l8.14,7.27,12.18-.26,3.93-3.09Z"/>
    <path class="cls-8" d="M537.66,224.86l9.83-.08c-1.29,4.06,10.92,8.63,4.99,20.78-2.66,5.44-8.4,7.75-15.24,6.73-8.64,13.57-19.74,25.09-33.59,32.24.18-2.86-1.97-7-3.92-8.83,11.01-7.85,21.79-16.71,28.8-28.83-1.33-3.4-2.08-6.99-1.9-11.1l-29.17-16.74.34-4.14,30.83,16.11c2.77-2.55,5.92-4.99,9.04-6.14Z"/>
    <path class="cls-2" d="M201.27,278.73l2.35,2.38c-.63,1.47-1.2,4.11-.99,5.57.05.36.31.95.45,1.3.2.51,1.83-1.05,1.62-1.07,1.42.16,3.44.21,4.87.22-.65,6.59,3.02,5.06,3.06,9.66-2.83,0-6.28.3-9.48.5-2.76,5.56-7.45,8.58-13.03,8.4-5.24-.17-10.82-2.74-12.31-8.05,1.49-1.5,2.99-4.31,2.93-6.47l-.29-10.15c5.47-1.92,11.06-4.35,16.48-.41l4.34-1.9Z"/>
    <path class="cls-2" d="M171.83,83.74l-5.87,18.32c-14.57-2.33-27.8-4.41-41.46-3.13l-4.95-1.67c-2.02-.68-3.03-4.75-2.76-7.08,13.9-2.11,28.2-2.04,42.32.38l4.52-11.52,4.38,2.43c1.46.81,2.81,1.57,3.83,2.27Z"/>
    <path class="cls-5" d="M207.59,37.37c-15.07,13.03-26.69,28.66-35.76,46.38-1.02-.7-2.37-1.46-3.83-2.27l-4.38-2.43c7.45-18.99,20.76-36,37.12-48.03.49,1.53,1.15,3.62,1.64,4.86s4.18,1.31,5.2,1.49Z"/>
    <path class="cls-4" d="M266.59,287.37c-1.48,9.42,15.96,1.96,16.97,9.56l-70.94-.11c-.03-4.61-3.7-3.08-3.06-9.66l57.02.22Z"/>
    <path class="cls-21" d="M378.57,280.82c1.13,1.53,1.84,3.18,2.87,6l29.98.59c-1.12,8.06,12.05,3.91,12.12,9.5l-44.6.29c-2.89,3.12-6.18,4.23-9.53,5.43-4-2.91.86-12.72,3.08-17.87.72-1.67,4.7-3.5,6.07-3.94Z"/>
    <path class="cls-8" d="M472.43,94.71l-1.2,3c-.99,2.47-2.98,4.25-5.58,4.49-11.31-3.58-24.07-3.41-36.01-2.86l-2.21,5.48c-2.6-.03-1.07-2.76-2.38-8.51l-1.46-6.36c16.77-3.49,33.16-.41,48.84,4.76Z"/>
    <path class="cls-20" d="M316.52,287.41c1.27,7.49,12.24,4.79,12.01,9.51h-44.98c-1.01-7.59-18.45-.13-16.97-9.55l49.93.04Z"/>
    <path class="cls-19" d="M180.45,281.04l.29,10.15c.06,2.16-1.43,4.96-2.93,6.47l-4.26-.96-1.04-9.57c1.39,0,2.81-.39,5.16-1.63l-54.57-40.22c-1.3-.96-3.24-1.9-4.43-2.48l3.23-4.14,58.54,42.38Z"/>
    <path class="cls-7" d="M172.51,287.14l1.04,9.57c-9.93.54-19.95.39-29.93.35-1.32-1.83-5.67-1.83-7,0-.78-.06-2.29-.19-3.06-.17.3-2.04-.72-3.82-2.47-5.52l.56-4.21h40.87Z"/>
    <path class="cls-3" d="M310.71,2.63l-2.24,9.15c-10.59-1.11-21.28-2.31-32.9-1.38-.54-5.56-4.65-8.26-9.96-9.2,15.19-1.64,30.51-1.97,45.1,1.44Z"/>
    <path class="cls-19" d="M143.61,297.05c-1.85,0-5.04.86-7,0,1.33-1.82,5.68-1.83,7,0Z"/>
    <path class="cls-3" d="M378.61,149.94l4.11,3.99c9.16,8.91,2.55,13.58,6.81,15.05l-.85,4.07c-4.02-1.44-5.1,7.16-13.31,7.11l-6.4-.04c-2.76-.91-5.7-3.24-8.35-5.31l-18.77,8.84-1.23-3.95,17.96-9.5.53-11.89-61.35-45.38c-1.3-.96-3.08-1.33-4.14-.92,1.92-2.12,3.79-4.62,5.15-7.21-.08,1.74.85,3.32,2.59,4.61l60.91,45.1c10.54-6.86,9.36-2.44,16.36-4.57Z"/>
    <path class="cls-24" d="M435.6,225l-53.63,50.27c-.6.56-2.53,1.5-3.09,1.71.08-.99-1.63-2.55-2.32-3.11l56.9-52.61c.49,1.31,1.27,2.69,2.14,3.73Z"/>
    <path class="cls-21" d="M370.6,96.69l-1.14,4.29-65.73.05c-1.43-1.22-2.27-3.12-1.97-4.89l68.84.55Z"/>
    <path class="cls-8" d="M509.5,144.91c-.27,1.36-1.09,3.38-2.21,4.63l-33.5,37.45-4.09-1.97c12.13-14.12,24.06-28.55,36.91-41.92.74.62,1.89,1.32,2.89,1.81Z"/>
    <path class="cls-10" d="M280.48,142.89l-10.06,62.98,6.1,4.05c.08,1.88,4.33,4.05,6.17,3.22l-2.66,2.07.53,11.24,12.1,8.26.82,2.61c.2.65-1.31,1.95-1.7,1.86l-14.12-8.52c-6.01,5.65-13.67,6.47-21.13,2.72-18.27,15.87-34.41,33.48-52.91,47.74l-2.35-2.38c15.37-16.28,32.56-31.01,49.28-46.81,1.57-1.49,2.51-3.13,1.75-4.94-.52-1.24-3.01-2.19-4.48-2.1l1.06-4.78c1.23-.61,2.68-2.6,2.84-4.01.15-1.29-1.42-3.56-2.76-4.62l-51.36-40.84c.72-1.13,1.45-2.49,2.06-3.78l55.25,42.94c4.15-2.47,6.62-3.3,10.7-4.2l10.14-64.57c.47-2.99,1.22-5.82,1.96-8.14l2.77,10.01Z"/>
    <path class="cls-16" d="M215.82,64.89l-25.43,74.52c-.41,1.2.42,3.72,1.16,4.05s2.57.41,3.46-.05l55.51-28.63,1.04-.74h.84s1.08,3.85,1.08,3.85l-57.49,30.42c.39,5.68-.06,9.46-1.05,14.29,1.45,1.33,3.43,3.26,4.73,4.27-.61,1.29-1.34,2.65-2.06,3.78-1.64-1.3-4.59-2.89-6.84-4.21-5.94,3.55-12.51,4.17-17.86.74-1.33-.85-2.67-1.84-4.02-2.3-.57-3.17-2.88-8.43-2.6-11.24.14-1.43.94-4.18,1.2-5.64,2.81-5.99,9.71-9.93,17.59-7.95l27.53-78.32c1.55,0,2.84,1.55,3.21,3.18Z"/>
    <path class="cls-10" d="M277.62,130.06c.01-1.11.58-3.14.95-4.29l1.27,2.69c.32.67-1.82,1.77-2.23,1.6Z"/>
    <path class="cls-7" d="M101.77,219.66c2.97,2.35,6.39,4.08,10.36,4.76l9.18,1.58.33,1.19-.86,2.37c-.29.8,1.6,2.32,2.13,2.67,0,1.59,0,5.14-1.01,6.43l-3.23,4.14c-4.35,3.67-10.22,3.89-16.26,2.54l-16.05,20.58-4.48-1.09,16.17-23c-2.56-4.48-3.99-8.61-3.24-14.35l-39.37-18.64c.28-1.39,1.05-2.86,2.04-3.91l39.78,18.19,4.51-3.46Z"/>
    <path class="cls-7" d="M48.76,200.85c-1.5-.7-2.81-1.29-4.16-2.12l4.16,2.12Z"/>
    <path class="cls-19" d="M172.91,167.16l-49.72,52.25c-2.07,2.18-3.1,4.11-1.88,6.6l-9.18-1.58c-3.97-.68-7.38-2.41-10.36-4.76-.26-1.95-.51-4.97-1.02-6.77,1.5-1.34,2.62-3.17,2.96-5.09.76,2.77,1.99,6.6,2.87,9.4l10.08,1.91,52.23-54.26c1.35.46,2.69,1.45,4.02,2.3Z"/>
    <path class="cls-14" d="M167.49,147.97c-.26,1.46-1.06,4.21-1.2,5.64l-35.7-15.59.84-4,36.06,13.95Z"/>
    <path class="cls-6" d="M370.21,246.08c-.58,9.09-.97,18.33-.82,27.38l-5.63-.52,2.03-27.08,4.42.23Z"/>
    <path class="cls-9" d="M204.69,286.92c.22.02-1.42,1.58-1.62,1.07-.13-.35-.4-.94-.45-1.3l2.06.24Z"/>
    <path class="cls-9" d="M375.37,180.17c-.58,1.03-1.15,3.01-1.25,4.67l-3.91,61.24-4.42-.23,3.25-57.93c.16-2.77.05-5.5-.07-7.79l6.4.04Z"/>
    <path class="cls-9" d="M340.61,179.71l1.23,3.95c-19.87,9.35-39.12,20.43-59.16,29.49-1.84.83-6.09-1.33-6.17-3.22,1.35.05,3.36-.28,4.88-1.03l59.21-29.19Z"/>
    <path class="cls-20" d="M250.52,114.76l1.04-.74-1.04.74Z"/>
    <path class="cls-14" d="M248.87,220.1l-1.06,4.78-64.31,4.04c-.83-1.49,10.18-.75,11.22-4.99l54.15-3.83Z"/>
    <path class="cls-19" d="M130.18,228.44c.58.01,1.89.25,2.71.36.57.07.87-.97.97-1.59,1.39.1,3.46.24,4.77.16l-.02,4.29c-5.18.67-10.51.91-15.71.58-.53-.35-2.42-1.87-2.13-2.67l.86-2.37c.45.43,2.04,1.1,2.77,1.11l5.77.13Z"/>
    <path class="cls-19" d="M183.61,224.01c.03.23,1.14,1.3,1.43.89l.71-1c2.71-.14,6.36.21,8.97.03-1.03,4.24-12.05,3.5-11.22,4.99l-2.73.07-2.69-1.31c-.85-.41-3.06,1.27-2.65,2.04l-15.71.22c.14-1.25-2.4-2.3-3.85-2.21l-3.66.23c-.82.05-.55,1.98-.51,2.87l-8.04.04v-3.83s2.81-.27,2.81-.27c-.07.11,1.4,1.74,1.6,1.19.13-.38.4-.98.56-1.34l3-.05c1.72-.03,4.75.2,6.08-.64l3.73-.13,2.51,1.18c.48.22.99-1.66.91-1.81l1.76-.04,2.43.87c.47.17,1.44-.85,1.57-1.13l13-.87Z"/>
    <path class="cls-14" d="M143.65,227.05v3.83c-1.54.28-3.4.57-5.03.78l.02-4.29,5.01-.31Z"/>
    <path class="cls-14" d="M159.72,229.94c-2.5.74-5.26.89-8.03.9-.03-.89-.31-2.82.51-2.87l3.66-.23c1.45-.09,3.99.96,3.85,2.21Z"/>
    <path class="cls-14" d="M180.77,228.99c-1.42.52-3.53.71-5.34.73-.41-.78,1.8-2.46,2.65-2.04l2.69,1.31Z"/>
    <path class="cls-14" d="M157.7,225.94c-1.34.84-4.36.61-6.08.64,1.7-.39,4.05-.57,6.08-.64Z"/>
    <path class="cls-14" d="M133.87,227.2c-.11.63-.4,1.67-.97,1.59-.82-.11-2.13-.34-2.71-.36,0-.42.57-1.47,1.13-1.43l2.56.19Z"/>
    <path class="cls-14" d="M164.85,225.18c.08.15-.43,2.03-.91,1.81l-2.51-1.18,3.42-.63Z"/>
    <path class="cls-14" d="M170.61,224.89c-.13.28-1.1,1.29-1.57,1.13l-2.43-.87,4-.25Z"/>
    <path class="cls-14" d="M148.61,226.63c-.16.36-.43.96-.56,1.34-.2.55-1.67-1.08-1.6-1.19.66-.08,1.55-.15,2.16-.16Z"/>
    <path class="cls-14" d="M185.75,223.9l-.71,1c-.29.41-1.4-.66-1.43-.89l2.14-.11Z"/>
  </g>
</svg>