<?xml version="1.0" encoding="UTF-8"?>
<svg id="Ebene_1" data-name="Ebene 1" xmlns="http://www.w3.org/2000/svg" viewBox="0 0 1024 1024">
  <defs>
    <style>
      .cls-1 {
        fill: #054fbe;
      }

      .cls-2 {
        fill: #fbfcfd;
      }

      .cls-3 {
        fill: #046eca;
      }

      .cls-4 {
        fill: #fafbfc;
      }

      .cls-5 {
        fill: #09a2ce;
      }

      .cls-6 {
        fill: #007dc9;
      }

      .cls-7 {
        fill: #0881cb;
      }

      .cls-8 {
        fill: #0bb0d1;
      }

      .cls-9 {
        fill: #085dc4;
      }

      .cls-10 {
        fill: #07c9cb;
      }

      .cls-11 {
        fill: #0f9ccf;
      }

      .cls-12 {
        fill: #0b84ce;
      }

      .cls-13 {
        fill: #0bb9cd;
      }

      .cls-14 {
        fill: #fbfdfd;
      }

      .cls-15 {
        fill: #f9fcfc;
      }

      .cls-16 {
        fill: #0b93cf;
      }

      .cls-17 {
        fill: #044ec2;
      }

      .cls-18 {
        fill: #1076cb;
      }

      .cls-19 {
        fill: #06d2c9;
      }

      .cls-20 {
        fill: #0a7ecc;
      }

      .cls-21 {
        fill: #0452c0;
      }

      .cls-22 {
        fill: #08b5cf;
      }

      .cls-23 {
        fill: #0b68c9;
      }

      .cls-24 {
        fill: #0893ce;
      }

      .cls-25 {
        fill: #02a5cc;
      }

      .cls-26 {
        fill: #0552c2;
      }

      .cls-27 {
        fill: #034bc0;
      }

      .cls-28 {
        fill: #09a9ce;
      }

      .cls-29 {
        fill: #fdfdfd;
      }
    </style>
  </defs>
  <path class="cls-29" d="M0,0h1024v1024H0V0ZM490,236.31c-8.01.86-16.82,5.22-25.19,5.02-5.93-.14-11.16-6.8-18.25-1.96-4.56,3.11-9.01,8.2-7.27,15.76-5.37,3.26-9.62,7.66-14.15,10.99-16.36,12.03-29.67,29.04-37.12,48.03l-4.52,11.52c-14.11-2.42-28.42-2.49-42.32-.38-11.63,1.77-22.4,5.94-33.28,10.18-5.09-1.1-11.8-3.75-16.7.41-4.45,3.78-6.74,9.46-5.37,16.27l-9.62,10.84c-12.86,14.49-21.54,32.75-25.97,51.94-6.36,2.31-11.47,6.61-11.86,12.58-.46,6.99,4.26,11.72,10.42,14.63.92,21.76,13.23,49.6,29.22,62.99l5.34,5.97c-2.11,6.66.12,12.7,4.72,16.23,5.87,4.51,12.48,1.96,18.14-1.54,24.09,7.26,27.21,6.88,51.72,6.19.76-.02,2.28.11,3.06.17,1.96.87,5.15,0,7,0,9.98.04,20,.19,29.93-.35l4.26.96c1.49,5.3,7.07,7.88,12.31,8.05,5.58.18,10.27-2.84,13.03-8.4,3.2-.2,6.65-.5,9.48-.5l70.94.11h44.98c7.82,0,16.88.17,24.71.67,5.31,4.24,10.19,7.18,16.16,5.04,3.34-1.2,6.64-2.32,9.53-5.43l44.6-.29,34.13.35c6.8.07,13.59-1.09,20.18-2.1,3.24,2.56,7.48,5.54,12.04,5.09,10.62-1.05,11.83-7.45,13.76-15.73,13.85-7.15,24.95-18.67,33.59-32.24,6.84,1.02,12.58-1.29,15.24-6.73,5.93-12.15-6.28-16.72-4.99-20.78,8.78-27.51-.31-61.04-15.22-85.61,2.68-5.64,3.85-12.34-.93-17.26-3.93-4.05-10.47-5.4-16.76-2.9-12.16-11.86-26.91-19.28-42.14-24.31-15.68-5.17-32.07-8.26-48.84-4.76-2.34-3.42-6.89-4.02-11.37-4.46-10.69-26.02-28-48.76-51.38-63.06-5.32-3.26,1.22-11-10.84-16.38-5.45-2.43-10.18.02-14.58,2.08-8.23-2.38-16.92-3.68-24.71-5.49-14.59-3.41-29.91-3.08-45.1-1.44ZM332.68,674.86l17.19.05-.13-47.53c-1.79-11.52-9.48-19.04-20.81-19.96-10.3-.84-19.4,2.27-25.98,10.91l-.28-42.01-17.04.19v98.37s17.03,0,17.03,0c1.53-14.48-1.53-28.36,1.25-42.43,1.67-8.45,15.93-11.35,22.4-8.2,4.69,2.29,6.24,7.08,6.25,11.69l.12,38.91ZM384.5,588.59c0-5.8-4.7-10.51-10.51-10.51s-10.51,4.7-10.51,10.51,4.7,10.51,10.51,10.51,10.51-4.7,10.51-10.51ZM273.99,660.1c-5.05.82-8.24,1.41-11.89,1.54-5.41.2-7.91-4.25-7.89-8.7l.12-29.15,20.14-.45.05-13.91-20.23-.32-.17-22.51-16.93.13-.3,22.36-12.5.36.07,13.84,12.56.5.06,34.22c.01,8.4,5.53,15.34,13.27,17.45,8.72,2.38,16.8,1.24,25.31-1.76l-1.67-13.6ZM632.58,675.23l7.28-.33v-85.29s-7.56.09-7.56.09l-.3,37.52c-9.16-12.24-24.61-15.24-38.06-8.71-12.22,5.93-18.35,20.3-15.44,34.29,2.47,11.87,11.6,20.54,22.29,23.03,12.24,2.84,23.51-1.24,31.03-10.93l.75,10.31ZM434.01,623.01c6.34.51,9.96,5.12,9.99,10.47l.23,41.41,17.31.18-.12-45.89c-.02-6.87-3.54-14.44-9.36-17.93-12.21-7.31-27.42-4.45-36.79,6.03l-1.66-7.93-15.62.23-.03,65.22,16.91.17c.81-14.49-.97-28.26.94-42.31.95-7.03,12.17-10.13,18.21-9.64ZM536.65,664.04c10.68-13.24,10.14-33.85-1.82-45.9-14.58-14.68-39.34-14.43-54.12-.59-9.17,8.58-11.34,21-8.91,32.97,2.7,13.31,13.69,22.84,27.12,25.43,13.61,2.63,28.28-.19,37.72-11.91ZM382.39,609.34l-17.36.02.06,65.66,17.36-.02-.06-65.66ZM664.01,620.82c-8.6,4.64-12.36,15.38-12.77,24.87-.47,10.78,4.41,17.22,10.85,23.13,12.24,11.23,32.13,10.53,44.55-2.01-1.18-1.74-2.8-3.54-4.61-5.01-10.11,9.6-24.21,10.73-35.11,2.91-4.41-3.16-6.29-10.21-7.2-15.78l50.29-.24c1.29-3.98-.58-7.47-.97-10.67-1.69-13.9-14.37-23.81-29.11-22.72-5.79.43-12.14,1.55-15.92,5.53ZM764.55,617.55l-21.6,47.98-21.51-47.47c-1.85-1.26-5.23-1.31-8.63-.57l25.72,57.69h8.47s26.07-57.77,26.07-57.77c-2.96-.34-5.89-.34-8.51.14ZM569.42,668.25c0-4.67-3.78-8.45-8.45-8.45s-8.45,3.78-8.45,8.45,3.78,8.45,8.45,8.45,8.45-3.78,8.45-8.45Z"/>
  <g>
    <path class="cls-17" d="M332.68,674.86l-.12-38.91c-.01-4.61-1.56-9.4-6.25-11.69-6.47-3.15-20.72-.25-22.4,8.2-2.78,14.06.28,27.94-1.25,42.43h-17.01s-.01-98.38-.01-98.38l17.04-.19.28,42.01c6.58-8.64,15.68-11.75,25.98-10.91,11.34.92,19.03,8.44,20.81,19.96l.13,47.53-17.19-.05Z"/>
    <path class="cls-21" d="M536.65,664.04c-9.45,11.72-24.11,14.54-37.72,11.91-13.43-2.59-24.43-12.12-27.12-25.43-2.42-11.97-.25-24.38,8.91-32.97,14.78-13.84,39.54-14.09,54.12.59,11.96,12.05,12.5,32.65,1.82,45.9ZM526.93,642.21c0-10.78-8.74-19.51-19.51-19.51s-19.51,8.74-19.51,19.51,8.74,19.51,19.51,19.51,19.51-8.74,19.51-19.51Z"/>
    <path class="cls-26" d="M434.01,623.01c-6.05-.49-17.26,2.61-18.21,9.64-1.9,14.05-.13,27.82-.94,42.31l-16.91-.17.03-65.22,15.62-.23,1.66,7.93c9.37-10.48,24.58-13.34,36.79-6.03,5.83,3.49,9.35,11.06,9.36,17.93l.12,45.89-17.31-.18-.23-41.41c-.03-5.35-3.65-9.96-9.99-10.47Z"/>
    <path class="cls-27" d="M273.99,660.1l1.67,13.6c-8.5,3-16.59,4.13-25.31,1.76-7.73-2.11-13.25-9.05-13.27-17.45l-.06-34.22-12.56-.5-.07-13.84,12.5-.36.3-22.36,16.93-.13.17,22.51,20.23.32-.05,13.91-20.14.45-.12,29.15c-.02,4.44,2.48,8.89,7.89,8.7,3.64-.13,6.84-.72,11.89-1.54Z"/>
    <path class="cls-16" d="M632.58,675.23l-.75-10.31c-7.52,9.69-18.79,13.77-31.03,10.93-10.7-2.48-19.82-11.16-22.29-23.03-2.91-13.99,3.22-28.36,15.44-34.29,13.46-6.53,28.91-3.53,38.06,8.71l.3-37.52,7.56-.09v85.29s-7.28.33-7.28.33ZM632.86,646.07c0-13.07-10.59-23.66-23.66-23.66s-23.66,10.59-23.66,23.66,10.59,23.66,23.66,23.66,23.66-10.59,23.66-23.66Z"/>
    <rect class="cls-17" x="365.05" y="609.34" width="17.36" height="65.66"/>
    <path class="cls-8" d="M764.55,617.55c2.63-.48,5.55-.48,8.51-.14l-26.07,57.76h-8.47s-25.72-57.68-25.72-57.68c3.39-.73,6.77-.69,8.63.57l21.51,47.47,21.6-47.98Z"/>
    <path class="cls-11" d="M664.69,628.7c-3.01,2.91-4.15,8.98-5.07,13.63l43.27-.39c1.92-.72,4.58-2.52,6.14-3.91.39,3.21,2.26,6.69.97,10.67l-50.29.24c.9,5.58,2.79,12.62,7.2,15.78-.61-.04-3.53-.08-3.81.81l-1.02,3.3c-6.44-5.91-11.32-12.34-10.85-23.13.41-9.48,4.18-20.23,12.77-24.87-.81.85-1.68,1.93-3.25,3.78.87,1.02,2.81,3.02,3.93,4.09Z"/>
    <path class="cls-5" d="M709.04,638.01c-1.56,1.39-4.22,3.2-6.14,3.91-.75-7.84-5.31-15.28-13.36-18.43-8.41-3.29-18.47-.99-24.85,5.2-1.13-1.07-3.06-3.07-3.93-4.09,1.57-1.85,2.44-2.93,3.25-3.78,3.78-3.98,10.13-5.1,15.92-5.53,14.74-1.09,27.42,8.82,29.11,22.72Z"/>
    <circle class="cls-1" cx="373.99" cy="588.59" r="10.51"/>
    <path class="cls-28" d="M662.08,668.82l1.02-3.3c.27-.89,3.19-.85,3.81-.81,10.9,7.82,25,6.69,35.11-2.91,1.81,1.47,3.44,3.27,4.61,5.01-12.42,12.54-32.31,13.25-44.55,2.01Z"/>
    <circle class="cls-24" cx="560.97" cy="668.25" r="8.45"/>
    <circle class="cls-15" cx="507.42" cy="642.21" r="19.51"/>
    <circle class="cls-4" cx="609.2" cy="646.07" r="23.66"/>
    <path class="cls-2" d="M702.9,641.93l-43.27.39c.92-4.65,2.06-10.71,5.07-13.63,6.38-6.19,16.44-8.49,24.85-5.2,8.05,3.15,12.61,10.59,13.36,18.43Z"/>
  </g>
  <g>
    <path class="cls-13" d="M647.98,325.06l1.46,6.36c1.32,5.75-.21,8.48,2.38,8.51-.89,2.21-2.68,4.54-4.36,7.14l36.3,71.69c3.76.17,8.04.28,10.32,1.38l4.09,1.97c2.76,4.86,3.57,10.55,3.31,15.95l20.68,11.96-.34,4.14-22.2-11.03c-1.47-.73-5.02,2.22-5.55,3.84l18.1,61.73-4.82.33-17.93-60.48-11.98-3.78c-6.09,5.84-11.41,11-17.47,15.35-.87-1.04-1.65-2.43-2.14-3.73l16.86-16.15-3.14-11.09-58.5-20.97.85-4.07,56.31,19.5c3.03,1.05,6.04,1.19,7.33-.51,1.77-2.32,1-3.63-.37-6.33l-34.41-67.85-10.89-1.24-22.95,36.41c-1,1.58-1.65,3.41-1.84,4.95l-4.11-3.99,25.06-40.86-3.49-7.87-30.72-.22,1.14-4.29c9.02.07,19.49-.77,28.66-1.19,5.73-.26,2.5-4.88,1.44-9.76-3.98-18.24-29.95-43.79-44.18-55.01.97-2.9,2.66-5.62,4.32-8.31,23.38,14.31,40.69,37.04,51.38,63.06,4.48.44,9.03,1.04,11.37,4.46Z"/>
    <path class="cls-24" d="M490,236.31c5.32.95,9.42,3.65,9.96,9.2-10.48.83-21.28,3.55-31.66,6.55-.97,4.12-1.8,6.55-3.75,10.48l39.72,59.19,7.48.09c1.73.02,4.58-.2,5.52-1.48l2.86,2.84c.15,3.53,2.39,7.62,6.01,8.07-.3,1.77.54,3.66,1.97,4.89-2.96,0-3.69,1.32-4.97,3.77-1.36,2.59-3.22,5.09-5.15,7.21l-8.63,3.34-4.5,27.54-2.77-10.01c-.03-.73-.09-2.11-.09-2.82.41.18,2.54-.93,2.23-1.6l-1.27-2.69,1.62-11.95-7-5.93-19.71,9.98-1.08-3.84,19.31-10.92c-.21-5.16.6-8.68,4.4-12.86l-39.78-59.35c-2.88-.18-6.35.44-9.1,1.42l-11.41,32.56c-.37-1.63-1.67-3.18-3.21-3.18l10.43-32.81c-6.78,2.69-11.54,5.09-15.46,8.47-1.02-.18-4.72-.28-5.2-1.49s-1.15-3.33-1.64-4.86c4.54-3.34,8.78-7.73,14.15-10.99-1.74-7.56,2.71-12.65,7.27-15.76,7.09-4.84,12.32,1.82,18.25,1.96,8.37.2,17.18-4.16,25.19-5.02Z"/>
    <path class="cls-19" d="M771.87,459.89l-9.83.08c5.4-27.73,1.99-56.59-15.16-79.87l-8.94-1.83-4.05,1.76c-1-.48-2.15-1.18-2.89-1.81,2.6-2.7,2.55-5.71,1.01-9.32l-.11-7.68c-12.52-10.63-26.5-19.04-41.86-23.9,2.61-.25,4.6-2.03,5.58-4.49l1.2-3c15.23,5.02,29.99,12.44,42.14,24.31,6.3-2.5,12.83-1.15,16.76,2.9,4.77,4.91,3.6,11.62.93,17.26,14.9,24.58,23.99,58.1,15.22,85.61Z"/>
    <path class="cls-1" d="M285.2,366.94c-11.59,15.16-21.8,31.14-24.43,50.96,9.49,9.94,1.24,11.59,8.23,15.94,1.35.84,2.66,1.42,4.16,2.12l8.72,4.09c-.99,1.05-1.77,2.53-2.04,3.91l-15.1-6.49c-1.59-.68-4.94,2.18-5.52,3.67.78,20.72,10.05,38.4,22.81,54.9-2.29,3.81-6.72,5.13-3.99,9.1-16-13.39-28.31-41.23-29.22-62.99-6.16-2.91-10.88-7.64-10.42-14.63.39-5.98,5.5-10.27,11.86-12.58,4.43-19.2,13.11-37.45,25.97-51.94,3.41-.05,6.97,1.24,8.99,3.95Z"/>
    <path class="cls-9" d="M341.17,325.3c-.27,2.33.75,6.4,2.76,7.08l4.95,1.67c-11.82,1.1-23.37,5.33-34.4,10.28-.95,1.78-.92,5.58.15,7.15l41.19,17.67-.84,4-42.87-17.05c-2.55,1.66-4.77,3.47-6.41,5.71l22.39,81.11c-.34,1.91-1.45,3.74-2.96,5.09l-24.49-86.22c-2.29-.64-6.8-1.82-8.26-.64l-7.19,5.79c-2.02-2.71-5.59-4-8.99-3.95l9.62-10.84c-1.37-6.81.91-12.49,5.37-16.27,4.9-4.16,11.61-1.51,16.7-.41,10.88-4.24,21.65-8.42,33.28-10.18Z"/>
    <path class="cls-11" d="M588.14,508.05l5.63.52c2.44.89,4.87,1.42,7.18.42.68.56,2.4,2.12,2.32,3.11l-.31,3.83c-1.37.44-5.36,2.28-6.07,3.94-2.22,5.15-7.09,14.96-3.08,17.87-5.97,2.14-10.86-.8-16.16-5.04-7.83-.5-16.89-.68-24.71-.68.23-4.72-10.74-2.02-12.01-9.51l33.9-.46c.99-2.15,1.71-4.48,1.79-6.54l-60.43-41.24c.38.1,1.9-1.21,1.7-1.86l-.82-2.61,62.78,41.91c2.75-1.29,6.26-3.88,8.32-3.69Z"/>
    <path class="cls-28" d="M585.23,257.53c-1.66,2.69-3.35,5.41-4.32,8.31-3.84-3.03-6.76,4.08-17.67,1.06l-42.12,56.1-.98.18-2.86-2.84,41.47-56.19c-1.78-3.74-2.69-6.56-3.56-10.8-6.49-2.88-14.64-4.7-22.32-6.46l2.24-9.15c7.79,1.82,16.48,3.11,24.71,5.49,4.4-2.06,9.13-4.51,14.58-2.08,12.06,5.38,5.52,13.12,10.84,16.38Z"/>
    <path class="cls-22" d="M724.11,510.81c1.95,1.83,4.1,5.97,3.92,8.83-1.94,8.28-3.15,14.68-13.76,15.73-4.56.45-8.8-2.53-12.04-5.09-6.59,1.01-13.38,2.17-20.18,2.1l-34.13-.35c-.07-5.58-13.24-1.44-12.12-9.5l50.23-.33c4.3-.03,10.13-.79,13.49-2.19,1.93-4.99,4.32-8.02,7.84-10.99l4.82-.33c2.42-.17,4.66.06,7.24.79l4.68,1.33Z"/>
    <path class="cls-26" d="M306.27,499.95l4.48,1.09-2.82,6,2.39,8.66c7.22,3.02,15.43,6.07,23.58,6.2l22.14.35-.56,4.21c1.75,1.7,2.77,3.48,2.47,5.52-24.51.69-27.63,1.07-51.72-6.19-5.65,3.5-12.27,6.05-18.14,1.54-4.6-3.53-6.83-9.57-4.72-16.23l-5.34-5.97c-2.72-3.97,1.71-5.29,3.99-9.1l8.14,7.27,12.18-.26,3.93-3.09Z"/>
    <path class="cls-10" d="M762.04,459.97l9.83-.08c-1.29,4.06,10.92,8.63,4.99,20.78-2.66,5.44-8.4,7.75-15.24,6.73-8.64,13.57-19.74,25.09-33.59,32.24.18-2.86-1.97-7-3.92-8.83,11.01-7.85,21.79-16.71,28.8-28.83-1.33-3.4-2.08-6.99-1.9-11.1l-29.17-16.74.34-4.14,30.83,16.11c2.77-2.55,5.92-4.99,9.04-6.14Z"/>
    <path class="cls-3" d="M425.66,513.84l2.35,2.38c-.63,1.47-1.2,4.11-.99,5.57.05.36.31.95.45,1.3.2.51,1.83-1.05,1.62-1.07,1.42.16,3.44.21,4.87.22-.65,6.59,3.02,5.06,3.06,9.66-2.83,0-6.28.3-9.48.5-2.76,5.56-7.45,8.58-13.03,8.4-5.24-.17-10.82-2.74-12.31-8.05,1.49-1.5,2.99-4.31,2.93-6.47l-.29-10.15c5.47-1.92,11.06-4.35,16.48-.41l4.34-1.9Z"/>
    <path class="cls-3" d="M396.22,318.85l-5.87,18.32c-14.57-2.33-27.8-4.41-41.46-3.13l-4.95-1.67c-2.02-.68-3.03-4.75-2.76-7.08,13.9-2.11,28.2-2.04,42.32.38l4.52-11.52,4.38,2.43c1.46.81,2.81,1.57,3.83,2.27Z"/>
    <path class="cls-7" d="M431.98,272.48c-15.07,13.03-26.69,28.66-35.76,46.38-1.02-.7-2.37-1.46-3.83-2.27l-4.38-2.43c7.45-18.99,20.76-36,37.12-48.03.49,1.53,1.15,3.62,1.64,4.86s4.18,1.31,5.2,1.49Z"/>
    <path class="cls-6" d="M490.98,522.48c-1.48,9.42,15.96,1.96,16.97,9.56l-70.94-.11c-.03-4.61-3.7-3.08-3.06-9.66l57.02.22Z"/>
    <path class="cls-25" d="M602.96,515.93c1.13,1.53,1.84,3.18,2.87,6l29.98.59c-1.12,8.06,12.05,3.91,12.12,9.5l-44.6.29c-2.89,3.12-6.18,4.23-9.53,5.43-4-2.91.86-12.72,3.08-17.87.72-1.67,4.7-3.5,6.07-3.94Z"/>
    <path class="cls-10" d="M696.82,329.82l-1.2,3c-.99,2.47-2.98,4.25-5.58,4.49-11.31-3.58-24.07-3.41-36.01-2.86l-2.21,5.48c-2.6-.03-1.07-2.76-2.38-8.51l-1.46-6.36c16.77-3.49,33.16-.41,48.84,4.76Z"/>
    <path class="cls-24" d="M540.91,522.52c1.27,7.49,12.24,4.79,12.01,9.51h-44.98c-1.01-7.59-18.45-.13-16.97-9.55l49.93.04Z"/>
    <path class="cls-23" d="M404.83,516.15l.29,10.15c.06,2.16-1.43,4.96-2.93,6.47l-4.26-.96-1.04-9.57c1.39,0,2.81-.39,5.16-1.63l-54.57-40.22c-1.3-.96-3.24-1.9-4.43-2.48l3.23-4.14,58.54,42.38Z"/>
    <path class="cls-9" d="M396.9,522.25l1.04,9.57c-9.93.54-19.95.39-29.93.35-1.32-1.83-5.67-1.83-7,0-.78-.06-2.29-.19-3.06-.17.3-2.04-.72-3.82-2.47-5.52l.56-4.21h40.87Z"/>
    <path class="cls-5" d="M535.1,237.75l-2.24,9.15c-10.59-1.11-21.28-2.31-32.9-1.38-.54-5.56-4.65-8.26-9.96-9.2,15.19-1.64,30.51-1.97,45.1,1.44Z"/>
    <path class="cls-23" d="M368,532.16c-1.85,0-5.04.86-7,0,1.33-1.82,5.68-1.83,7,0Z"/>
    <path class="cls-14" d="M707.36,509.02c-3.52,2.97-5.91,6.01-7.84,10.99-3.36,1.4-9.19,2.16-13.49,2.19l-50.23.33-29.98-.59c-1.03-2.83-1.74-4.48-2.87-6l.31-3.83c.56-.22,2.49-1.15,3.09-1.71l53.63-50.27c6.06-4.35,11.38-9.52,17.47-15.35l11.98,3.78,17.93,60.48Z"/>
    <path class="cls-2" d="M613.07,408.17l58.5,20.97,3.14,11.09-16.86,16.15-56.9,52.61c-2.3,1-4.73.47-7.18-.42-.14-9.05.24-18.29.82-27.38l3.91-61.24c.11-1.67.68-3.65,1.25-4.67,8.21.05,9.29-8.55,13.31-7.11Z"/>
    <path class="cls-14" d="M580.91,265.85c14.22,11.22,40.2,36.77,44.18,55.01,1.06,4.88,4.29,9.5-1.44,9.76-9.17.42-19.64,1.26-28.66,1.19l-68.84-.55c-3.62-.45-5.86-4.54-6.01-8.07l.98-.18,42.12-56.1c10.91,3.02,13.83-4.09,17.67-1.06Z"/>
    <path class="cls-2" d="M690.04,337.31c15.36,4.86,29.34,13.27,41.86,23.9l.11,7.68c1.54,3.61,1.59,6.62-1.01,9.32-12.85,13.36-24.78,27.8-36.91,41.92-2.28-1.1-6.56-1.21-10.32-1.38l-36.3-71.69c1.67-2.59,3.46-4.92,4.36-7.14l2.21-5.48c11.93-.55,24.69-.71,36.01,2.86Z"/>
    <path class="cls-2" d="M762.04,459.97c-3.12,1.15-6.27,3.59-9.04,6.14l-30.83-16.11-20.68-11.96c.27-5.39-.55-11.09-3.31-15.95l33.5-37.45c1.12-1.25,1.94-3.27,2.21-4.63l4.05-1.76,8.94,1.83c17.15,23.28,20.57,52.14,15.16,79.87Z"/>
    <path class="cls-15" d="M528.12,336.14l65.73-.05,30.72.22,3.49,7.87-25.06,40.86c-7,2.13-5.82-2.29-16.36,4.57l-60.91-45.1c-1.74-1.29-2.67-2.86-2.59-4.61,1.28-2.45,2.01-3.77,4.97-3.77Z"/>
    <path class="cls-2" d="M613.92,404.1c-4.26-1.48,2.35-6.15-6.81-15.05.19-1.54.84-3.37,1.84-4.95l22.95-36.41,10.89,1.24,34.41,67.85c1.37,2.7,2.14,4.01.37,6.33-1.3,1.69-4.3,1.55-7.33.51l-56.31-19.5Z"/>
    <path class="cls-2" d="M721.83,454.14l29.17,16.74c-.18,4.11.57,7.7,1.9,11.1-7.01,12.12-17.79,20.98-28.8,28.83l-4.68-1.33c-2.58-.73-4.83-.96-7.24-.79l-18.1-61.73c.52-1.63,4.08-4.57,5.55-3.84l22.2,11.03Z"/>
    <path class="cls-5" d="M603,385.05l4.11,3.99c9.16,8.91,2.55,13.58,6.81,15.05l-.85,4.07c-4.02-1.44-5.1,7.16-13.31,7.11l-6.4-.04c-2.76-.91-5.7-3.24-8.35-5.31l-18.77,8.84-1.23-3.95,17.96-9.5.53-11.89-61.35-45.38c-1.3-.96-3.08-1.33-4.14-.92,1.92-2.12,3.79-4.62,5.15-7.21-.08,1.74.85,3.32,2.59,4.61l60.91,45.1c10.54-6.86,9.36-2.44,16.36-4.57Z"/>
    <path class="cls-28" d="M659.99,460.12l-53.63,50.27c-.6.56-2.53,1.5-3.09,1.71.08-.99-1.63-2.55-2.32-3.11l56.9-52.61c.49,1.31,1.27,2.69,2.14,3.73Z"/>
    <path class="cls-25" d="M594.99,331.8l-1.14,4.29-65.73.05c-1.43-1.22-2.27-3.12-1.97-4.89l68.84.55Z"/>
    <path class="cls-10" d="M733.89,380.02c-.27,1.36-1.09,3.38-2.21,4.63l-33.5,37.45-4.09-1.97c12.13-14.12,24.06-28.55,36.91-41.92.74.62,1.89,1.32,2.89,1.81Z"/>
    <path class="cls-4" d="M437,296.82l-27.53,78.32c-7.87-1.99-14.78,1.96-17.59,7.95l-36.06-13.95-41.19-17.67c-1.07-1.57-1.09-5.37-.15-7.15,11.03-4.95,22.58-9.17,34.4-10.28,13.65-1.28,26.89.81,41.46,3.13l5.87-18.32c9.08-17.72,20.69-33.34,35.76-46.38,3.91-3.38,8.67-5.78,15.46-8.47l-10.43,32.81Z"/>
    <path class="cls-2" d="M565,414.82l-59.21,29.19c-1.52.75-3.53,1.08-4.88,1.03l-6.1-4.05,10.06-62.98,4.5-27.54,8.63-3.34c1.06-.41,2.85-.04,4.14.92l61.35,45.38-.53,11.89-17.96,9.5Z"/>
    <path class="cls-2" d="M502.96,360.89c-.38,1.14-.94,3.18-.95,4.29,0,.7.06,2.08.09,2.82-.74,2.32-1.49,5.15-1.96,8.14l-10.14,64.57c-4.07.9-6.55,1.74-10.7,4.2l-55.25-42.94c-1.3-1.01-3.28-2.94-4.73-4.27,1-4.82,1.44-8.61,1.05-14.29l57.49-30.42,19.71-9.98,7,5.93-1.62,11.95Z"/>
    <path class="cls-2" d="M476.79,349.15h-.84s-1.04.73-1.04.73l-55.51,28.63c-.89.46-2.73.38-3.46.05s-1.57-2.84-1.16-4.05l25.43-74.52,11.41-32.56c2.75-.98,6.21-1.6,9.1-1.42l39.78,59.35c-3.8,4.18-4.61,7.7-4.4,12.86l-19.31,10.92Z"/>
    <path class="cls-2" d="M532.86,246.89c7.68,1.76,15.83,3.58,22.32,6.46.87,4.25,1.79,7.06,3.56,10.8l-41.47,56.19c-.94,1.28-3.79,1.5-5.52,1.48l-7.48-.09-39.72-59.19c1.95-3.93,2.77-6.35,3.75-10.48,10.39-3,21.18-5.72,31.66-6.55,11.62-.93,22.31.27,32.9,1.38Z"/>
    <path class="cls-12" d="M504.87,378l-10.06,62.98,6.1,4.05c.08,1.88,4.33,4.05,6.17,3.22l-2.66,2.07.53,11.24,12.1,8.26.82,2.61c.2.65-1.31,1.95-1.7,1.86l-14.12-8.52c-6.01,5.65-13.67,6.47-21.13,2.72-18.27,15.87-34.41,33.48-52.91,47.74l-2.35-2.38c15.37-16.28,32.56-31.01,49.28-46.81,1.57-1.49,2.51-3.13,1.75-4.94-.52-1.24-3.01-2.19-4.48-2.1l1.06-4.78c1.23-.61,2.68-2.6,2.84-4.01.15-1.29-1.42-3.56-2.76-4.62l-51.36-40.84c.72-1.13,1.45-2.49,2.06-3.78l55.25,42.94c4.15-2.47,6.62-3.3,10.7-4.2l10.14-64.57c.47-2.99,1.22-5.82,1.96-8.14l2.77,10.01Z"/>
    <path class="cls-20" d="M440.21,300l-25.43,74.52c-.41,1.2.42,3.72,1.16,4.05s2.57.41,3.46-.05l55.51-28.63,1.04-.74h.84s1.08,3.85,1.08,3.85l-57.49,30.42c.39,5.68-.06,9.46-1.05,14.29,1.45,1.33,3.43,3.26,4.73,4.27-.61,1.29-1.34,2.65-2.06,3.78-1.64-1.3-4.59-2.89-6.84-4.21-5.94,3.55-12.51,4.17-17.86.74-1.33-.85-2.67-1.84-4.02-2.3-.57-3.17-2.88-8.43-2.6-11.24.14-1.43.94-4.18,1.2-5.64,2.81-5.99,9.71-9.93,17.59-7.95l27.53-78.32c1.55,0,2.84,1.55,3.21,3.18Z"/>
    <path class="cls-12" d="M502.01,365.17c.01-1.11.58-3.14.95-4.29l1.27,2.69c.32.67-1.82,1.77-2.23,1.6Z"/>
    <path class="cls-4" d="M325.14,448.01c.51,1.81.77,4.82,1.02,6.77l-4.51,3.46-39.78-18.19-8.72-4.09-4.16-2.12c-6.99-4.34,1.27-6-8.23-15.94,2.63-19.82,12.85-35.8,24.43-50.96l7.19-5.79c1.46-1.17,5.96,0,8.26.64l24.49,86.22Z"/>
    <path class="cls-4" d="M279.83,443.96l39.37,18.64c-.76,5.74.68,9.87,3.24,14.35l-16.17,23-3.93,3.09-12.18.26-8.14-7.27c-12.76-16.5-22.03-34.17-22.81-54.9.58-1.49,3.92-4.35,5.52-3.67l15.1,6.49Z"/>
    <path class="cls-9" d="M326.16,454.78c2.97,2.35,6.39,4.08,10.36,4.76l9.18,1.58.33,1.19-.86,2.37c-.29.8,1.6,2.32,2.13,2.67,0,1.59,0,5.14-1.01,6.43l-3.23,4.14c-4.35,3.67-10.22,3.89-16.26,2.54l-16.05,20.58-4.48-1.09,16.17-23c-2.56-4.48-3.99-8.61-3.24-14.35l-39.37-18.64c.28-1.39,1.05-2.86,2.04-3.91l39.78,18.19,4.51-3.46Z"/>
    <path class="cls-9" d="M273.15,435.96c-1.5-.7-2.81-1.29-4.16-2.12l4.16,2.12Z"/>
    <path class="cls-2" d="M354.98,373.14l35.7,15.59c-.28,2.81,2.03,8.07,2.6,11.24l-52.23,54.26-10.08-1.91c-.89-2.8-2.11-6.64-2.87-9.4l-22.39-81.11c1.64-2.24,3.86-4.05,6.41-5.71l42.87,17.05Z"/>
    <path class="cls-23" d="M397.3,402.27l-49.72,52.25c-2.07,2.18-3.1,4.11-1.88,6.6l-9.18-1.58c-3.97-.68-7.38-2.41-10.36-4.76-.26-1.95-.51-4.97-1.02-6.77,1.5-1.34,2.62-3.17,2.96-5.09.76,2.77,1.99,6.6,2.87,9.4l10.08,1.91,52.23-54.26c1.35.46,2.69,1.45,4.02,2.3Z"/>
    <path class="cls-18" d="M391.88,383.09c-.26,1.46-1.06,4.21-1.2,5.64l-35.7-15.59.84-4,36.06,13.95Z"/>
    <path class="cls-2" d="M593.36,415.24c.12,2.29.22,5.02.07,7.79l-3.25,57.93-2.03,27.08c-2.05-.19-5.57,2.4-8.32,3.69l-62.78-41.91-12.1-8.26-.53-11.24,2.66-2.07c20.03-9.06,39.29-20.13,59.16-29.49l18.77-8.84c2.65,2.07,5.59,4.4,8.35,5.31Z"/>
    <path class="cls-14" d="M516.17,474.29l60.43,41.24c-.08,2.06-.8,4.38-1.79,6.54l-33.9.46-49.93-.04-57.02-.22c-1.44,0-3.46-.06-4.87-.22l-2.06-.24c-.21-1.47.36-4.11.99-5.57,18.5-14.26,34.63-31.88,52.91-47.74,7.46,3.76,15.11,2.94,21.13-2.72l14.12,8.52Z"/>
    <path class="cls-8" d="M594.6,481.19c-.58,9.09-.97,18.33-.82,27.38l-5.63-.52,2.03-27.08,4.42.23Z"/>
    <path class="cls-4" d="M396.9,522.25h-40.87s-22.14-.35-22.14-.35c-8.15-.13-16.36-3.19-23.58-6.2l-2.39-8.66,2.82-6,16.05-20.58c6.04,1.36,11.91,1.13,16.26-2.54,1.19.58,3.13,1.52,4.43,2.48l54.57,40.22c-2.35,1.25-3.78,1.63-5.16,1.63Z"/>
    <path class="cls-4" d="M472.21,459.99c1.46-.09,3.95.86,4.48,2.1.76,1.81-.17,3.46-1.75,4.94-16.72,15.8-33.91,30.53-49.28,46.81l-4.34,1.9c-5.43-3.93-11.02-1.51-16.48.41l-58.54-42.38c1.01-1.29,1-4.84,1.01-6.43,5.2.32,10.53.09,15.71-.58,1.63-.21,3.5-.5,5.03-.78l8.04-.04c2.76-.01,5.53-.16,8.03-.9l15.71-.22c1.81-.03,3.92-.21,5.34-.73l2.73-.07,64.31-4.04Z"/>
    <path class="cls-11" d="M429.08,522.04c.22.02-1.42,1.58-1.62,1.07-.13-.35-.4-.94-.45-1.3l2.06.24Z"/>
    <path class="cls-11" d="M599.76,415.28c-.58,1.03-1.15,3.01-1.25,4.67l-3.91,61.24-4.42-.23,3.25-57.93c.16-2.77.05-5.5-.07-7.79l6.4.04Z"/>
    <path class="cls-11" d="M565,414.82l1.23,3.95c-19.87,9.35-39.12,20.43-59.16,29.49-1.84.83-6.09-1.33-6.17-3.22,1.35.05,3.36-.28,4.88-1.03l59.21-29.19Z"/>
    <path class="cls-24" d="M474.91,349.88l1.04-.74-1.04.74Z"/>
    <path class="cls-2" d="M421.99,405.74l51.36,40.84c1.33,1.06,2.91,3.33,2.76,4.62-.17,1.41-1.62,3.4-2.84,4.01l-54.15,3.83c-2.61.18-6.26-.17-8.97-.03l-2.14.11-13,.87-4,.25-1.76.04-3.42.63-3.73.13c-2.03.07-4.38.25-6.08.64l-3,.05c-.61,0-1.5.08-2.16.16l-2.8.27-5.01.31c-1.31.08-3.38-.06-4.77-.16l-2.56-.19c-.55-.04-1.12,1.01-1.13,1.43l-5.77-.13c-.74-.02-2.32-.68-2.77-1.11l-.33-1.19c-1.21-2.49-.19-4.42,1.88-6.6l49.72-52.25c5.35,3.43,11.92,2.81,17.86-.74,2.25,1.32,5.2,2.91,6.84,4.21Z"/>
    <path class="cls-18" d="M473.26,455.21l-1.06,4.78-64.31,4.04c-.83-1.49,10.18-.75,11.22-4.99l54.15-3.83Z"/>
    <path class="cls-23" d="M354.57,463.55c.58.01,1.89.25,2.71.36.57.07.87-.97.97-1.59,1.39.1,3.46.24,4.77.16l-.02,4.29c-5.18.67-10.51.91-15.71.58-.53-.35-2.42-1.87-2.13-2.67l.86-2.37c.45.43,2.04,1.1,2.77,1.11l5.77.13Z"/>
    <path class="cls-23" d="M408,459.13c.03.23,1.14,1.3,1.43.89l.71-1c2.71-.14,6.36.21,8.97.03-1.03,4.24-12.05,3.5-11.22,4.99l-2.73.07-2.69-1.31c-.85-.41-3.06,1.27-2.65,2.04l-15.71.22c.14-1.25-2.4-2.3-3.85-2.21l-3.66.23c-.82.05-.55,1.98-.51,2.87l-8.04.04v-3.83s2.81-.27,2.81-.27c-.07.11,1.4,1.74,1.6,1.19.13-.38.4-.98.56-1.34l3-.05c1.72-.03,4.75.2,6.08-.64l3.73-.13,2.51,1.18c.48.22.99-1.66.91-1.81l1.76-.04,2.43.87c.47.17,1.44-.85,1.57-1.13l13-.87Z"/>
    <path class="cls-18" d="M368.04,462.16v3.83c-1.54.28-3.4.57-5.03.78l.02-4.29,5.01-.31Z"/>
    <path class="cls-18" d="M384.1,465.05c-2.5.74-5.26.89-8.03.9-.03-.89-.31-2.82.51-2.87l3.66-.23c1.45-.09,3.99.96,3.85,2.21Z"/>
    <path class="cls-18" d="M405.16,464.1c-1.42.52-3.53.71-5.34.73-.41-.78,1.8-2.46,2.65-2.04l2.69,1.31Z"/>
    <path class="cls-18" d="M382.08,461.05c-1.34.84-4.36.61-6.08.64,1.7-.39,4.05-.57,6.08-.64Z"/>
    <path class="cls-18" d="M358.26,462.31c-.11.63-.4,1.67-.97,1.59-.82-.11-2.13-.34-2.71-.36,0-.42.57-1.47,1.13-1.43l2.56.19Z"/>
    <path class="cls-18" d="M389.24,460.29c.08.15-.43,2.03-.91,1.81l-2.51-1.18,3.42-.63Z"/>
    <path class="cls-18" d="M395,460c-.13.28-1.1,1.29-1.57,1.13l-2.43-.87,4-.25Z"/>
    <path class="cls-18" d="M373,461.74c-.16.36-.43.96-.56,1.34-.2.55-1.67-1.08-1.6-1.19.66-.08,1.55-.15,2.16-.16Z"/>
    <path class="cls-18" d="M410.14,459.02l-.71,1c-.29.41-1.4-.66-1.43-.89l2.14-.11Z"/>
  </g>
</svg>